<?xml version="1.0" encoding="utf-8"?>
<!-- Generator: Adobe Illustrator 22.1.0, SVG Export Plug-In . SVG Version: 6.00 Build 0)  -->
<svg version="1.1" id="Capa_1" xmlns="http://www.w3.org/2000/svg" xmlns:xlink="http://www.w3.org/1999/xlink" x="0px" y="0px"
	 viewBox="0 0 636.2 644.6" style="enable-background:new 0 0 636.2 644.6;" xml:space="preserve">
<style type="text/css">
	.st0{fill:#EA7A00;}
	.st1{fill:#FF9A2C;}
</style>
<ellipse class="st0" cx="318.1" cy="322.3" rx="318.1" ry="322.3"/>
<g>
	<g>
		<path class="st1" d="M559.3,325.5h-88.6v-30.7c44.6-7.1,78.8-45.8,78.8-92.4v-19.7c0-8.2-6.6-14.8-14.8-14.8s-14.8,6.6-14.8,14.8
			v19.7c0,30.2-21,55.6-49.2,62.3v-13c0-13.6-11-24.6-24.6-24.6h-14.8v-54.2c0-31.1-22.3-57-51.7-62.8l11-24.7
			c3.3-7.5,0-16.2-7.5-19.5c-7.5-3.3-16.2,0-19.5,7.5l-15.8,35.5h-59.6l-15.8-35.5c-3.3-7.5-12-10.8-19.5-7.5
			c-7.5,3.3-10.8,12-7.5,19.5l11,24.7c-29.4,5.8-51.7,31.7-51.7,62.8V227h-14.8c-13.6,0-24.6,11-24.6,24.6v13
			c-28.2-6.7-49.2-32.1-49.2-62.3v-19.7c0-8.2-6.6-14.8-14.8-14.8s-14.8,6.6-14.8,14.8v19.7c0,46.6,34.2,85.3,78.8,92.4v30.7H76.9
			c-8.2,0-14.8,6.6-14.8,14.8S68.7,355,76.9,355h88.6v30.7c-44.6,7.1-78.8,45.8-78.8,92.4v19.7c0,8.2,6.6,14.8,14.8,14.8
			s14.8-6.6,14.8-14.8v-19.7c0-30.2,21-55.6,49.2-62.3v8.1c0,84.2,68.5,152.6,152.6,152.6s152.6-68.5,152.6-152.6v-8.1
			c28.2,6.7,49.2,32.1,49.2,62.3v19.7c0,8.2,6.6,14.8,14.8,14.8s14.8-6.6,14.8-14.8v-19.7c0-46.6-34.2-85.3-78.8-92.4V355h88.6
			c8.2,0,14.8-6.6,14.8-14.8S567.5,325.5,559.3,325.5z M234.4,172.9c0-19,15.5-34.5,34.5-34.5h98.5c19,0,34.5,15.5,34.5,34.5V227
			H234.4V172.9z M441.2,423.9c0,67.9-55.2,123.1-123.1,123.1S195,491.8,195,423.9V256.6h108.3v142.8c0,8.2,6.6,14.8,14.8,14.8
			c8.2,0,14.8-6.6,14.8-14.8V256.6h108.3V423.9z"/>
	</g>
</g>
</svg>
