<?xml version="1.0" encoding="utf-8"?>
<!-- Generator: Adobe Illustrator 22.1.0, SVG Export Plug-In . SVG Version: 6.00 Build 0)  -->
<svg version="1.1" id="Capa_1" xmlns="http://www.w3.org/2000/svg" xmlns:xlink="http://www.w3.org/1999/xlink" x="0px" y="0px"
	 viewBox="0 0 636.2 644.6" style="enable-background:new 0 0 636.2 644.6;" xml:space="preserve">
<style type="text/css">
	.st0{fill:#11191E;}
	.st1{fill:#2C3E50;}
</style>
<ellipse class="st0" cx="318.1" cy="322.3" rx="318.1" ry="322.3"/>
<g>
	<g>
		<path class="st1" d="M535.4,349.8c-4.1-1-8.2,0-11.8,2.6c-13.3,11.2-28.6,20.4-45.5,26.6c-15.8,6.1-33.2,9.2-51.6,9.2
			c-41.4,0-79.2-16.9-106.3-43.9c-27.1-27.1-43.9-64.9-43.9-106.3c0-17.4,3.1-34.2,8.2-49.6c5.6-16.4,13.8-31.2,24.5-43.9
			c4.6-5.6,3.6-13.8-2-18.4c-3.6-2.6-7.7-3.6-11.8-2.6c-43.4,11.8-81.2,37.8-108.3,72.6c-26.1,34.2-41.9,76.6-41.9,123.1
			c0,55.7,22.5,106.3,59.3,143.1s87.4,59.3,143.1,59.3c47,0,90.4-16.4,125.2-43.4c35.3-27.6,60.8-66.9,71.5-111.9
			C546.7,358.5,542.6,351.4,535.4,349.8z M457.2,456.6c-29.6,23.5-67.5,37.8-108.8,37.8c-48.5,0-92.5-19.9-124.2-51.6
			s-51.6-75.6-51.6-124.2c0-40.4,13.3-77.2,36.3-106.8c15.8-20.4,35.8-37.3,58.8-49.1c-2.6,5.6-5.1,11.2-7.2,17.4
			c-6.6,18.4-9.7,37.8-9.7,58.3c0,48.5,19.9,93,51.6,124.7s76.1,51.6,124.7,51.6c21.5,0,41.9-3.6,60.8-10.7
			c6.6-2.6,13.3-5.1,19.4-8.2C495,419.3,478.2,440.3,457.2,456.6z"/>
	</g>
</g>
</svg>
