<?xml version="1.0" encoding="utf-8"?>
<!-- Generator: Adobe Illustrator 22.1.0, SVG Export Plug-In . SVG Version: 6.00 Build 0)  -->
<svg version="1.1" id="Layer_1" xmlns="http://www.w3.org/2000/svg" xmlns:xlink="http://www.w3.org/1999/xlink" x="0px" y="0px"
	 viewBox="0 0 636.2 644.6" style="enable-background:new 0 0 636.2 644.6;" xml:space="preserve">
<style type="text/css">
	.st0{fill:#2100AD;}
	.st1{fill:#5229FF;}
</style>
<ellipse class="st0" cx="318.1" cy="322.3" rx="318.1" ry="322.3"/>
<path class="st1" d="M407.6,209c-2.4-0.3-4.6,1.4-4.9,3.8c0,0,0,0,0,0c-4.2,32.4-42.3,75.9-64.6,99c-1.7,1.7-1.6,4.5,0.1,6.2
	c1.7,1.7,4.5,1.6,6.2-0.1l0,0c51.1-52.8,64.7-85.7,67-104C411.7,211.5,410,209.3,407.6,209L407.6,209z"/>
<path class="st1" d="M418.1,227.3c-2.4-0.4-4.7,1.2-5.1,3.6c-0.4,2.4,1.2,4.7,3.6,5.1c0,0,0.1,0,0.1,0c41.4,6.8,50.2,41,50.6,42.4
	c0.6,2.4,3,3.8,5.3,3.2c2.3-0.6,3.7-2.9,3.2-5.2C475.4,274.6,465.4,235.1,418.1,227.3z"/>
<path class="st1" d="M397.3,274.2c-2.2,1-3.2,3.6-2.2,5.8c12.9,29.2,0,69-0.2,69.4c-0.8,2.3,0.5,4.8,2.8,5.6
	c2.3,0.8,4.8-0.5,5.6-2.8c0.6-1.8,14.1-43.4-0.2-75.7C402.1,274.2,399.5,273.2,397.3,274.2C397.3,274.2,397.3,274.2,397.3,274.2
	L397.3,274.2z"/>
<path class="st1" d="M147.3,143.1c-17.6,17.6-8.8,41-8.4,42c0.9,2.3,3.4,3.4,5.7,2.5c2.3-0.9,3.4-3.4,2.5-5.7
	c-0.3-0.8-7.1-19.2,6.4-32.7c1.7-1.7,1.8-4.5,0.1-6.2C151.9,141.4,149.1,141.4,147.3,143.1C147.3,143.1,147.3,143.1,147.3,143.1
	L147.3,143.1z"/>
<path class="st1" d="M219.7,193.2c1.1-2.1,0.3-4.8-1.8-5.9c-1.3-0.7-32.1-16.8-56.9-7.8c-2.3,0.9-3.4,3.4-2.6,5.7
	c0.8,2.2,3.3,3.4,5.6,2.6c21-7.7,49.3,7.1,49.7,7.3C215.9,196.1,218.5,195.3,219.7,193.2L219.7,193.2z"/>
<path class="st1" d="M439.6,371.5c-2.7,7.6-4.7,15.3-6,23.2c-0.4,2.4,1.2,4.7,3.6,5.1c2.4,0.4,4.7-1.2,5.1-3.6
	c1.3-7.4,3.2-14.7,5.7-21.8c0.8-2.3-0.4-4.8-2.7-5.6C442.9,368.1,440.4,369.2,439.6,371.5z"/>
<path class="st1" d="M454.8,343c-1.3,1.7-2.6,3.5-3.8,5.3c-1.4,2-0.9,4.7,1.1,6.1c2,1.4,4.7,0.9,6.1-1.1c0,0,0.1-0.1,0.1-0.1
	c1.1-1.7,2.3-3.3,3.4-4.8c1.5-1.9,1.1-4.7-0.8-6.2S456.3,341.1,454.8,343C454.8,343,454.8,343,454.8,343z"/>
<path class="st1" d="M472.7,336.8c7.6-6.6,16.4-11.6,25.9-14.7c4.7-1.6,9.5-2.6,14.4-3c2.4,0,4.4-2.1,4.3-4.5c0-2.4-2.1-4.4-4.5-4.3
	c-0.1,0-0.1,0-0.2,0c-5.7,0.4-11.4,1.6-16.8,3.5c-10.6,3.5-20.4,9.1-28.9,16.4c-1.8,1.6-2,4.4-0.4,6.2
	C468.1,338.1,470.8,338.3,472.7,336.8L472.7,336.8z"/>
<path class="st1" d="M305.3,268c2,1.3,4.8,0.7,6.1-1.3c1.3-2,0.7-4.7-1.2-6c-10.7-6.9-20.1-15.6-27.7-25.8c-1.5-1.9-4.2-2.3-6.2-0.8
	c-1.9,1.4-2.3,4.1-0.9,6C283.6,251,293.7,260.5,305.3,268L305.3,268z"/>
<path class="st1" d="M260.9,196.1c-2.4,0.5-3.8,2.9-3.3,5.3c0,0,0,0,0,0c1.6,7.2,4,14.3,7.2,21c1,2.2,3.7,3.1,5.9,2.1
	c2.2-1,3.1-3.6,2.1-5.8c-2.9-6.2-5.1-12.6-6.6-19.2C265.7,197.1,263.3,195.6,260.9,196.1C260.9,196.1,260.9,196.1,260.9,196.1z"/>
<path class="st1" d="M259.3,178.5h0.2c2.4,0,4.3-1.9,4.4-4.2c0.1-3.2,0.4-6.3,0.9-9.5c0.4-2.4-1.2-4.7-3.6-5.1
	c-2.3-0.4-4.5,1.1-5.1,3.4c-0.6,3.6-1,7.2-1.1,10.9C254.9,176.4,256.8,178.4,259.3,178.5z"/>
<path class="st1" d="M456.4,191.8c-21.4-1.5-42.9-0.3-63.9,3.5c-1.8,0.4-3.3,1.9-3.5,3.7c-1.8,13.9-12.6,45.3-64.6,99
	c-3.5,3.6-6.3,9.1-9.3,14.9c-3.9,7.6-8.8,17.1-13.2,16.2c-7.8-1.6-15.7-2.3-23.7-2.1c-11.4-28.3,5.8-50.3,6.6-51.2
	c1.5-1.9,1.2-4.7-0.6-6.2c-0.1-0.1-0.2-0.2-0.3-0.3c-23.6-15.6-38.4-36.3-44-61.8c-4.2-19.1-1.4-33.9-1.3-34
	c0.5-2.4-1.1-4.7-3.4-5.2c-0.1,0-0.2,0-0.2,0c-31.9-4.6-53-15-61-29.9c-7.7-14.2-1.3-28-1.1-28.6c1-2.2,0.1-4.8-2.1-5.9
	c-0.9-0.5-2-0.6-3-0.3c-22.2,5.9-38.1,17-47.4,33.1c-14.5,25.1-7.2,52.8-6.9,54c0.3,1.3,1.2,2.3,2.4,2.9
	c37.9,17.1,63,49.8,77.4,74.2c8.3,14,15.2,28.8,20.6,44.2c-0.4-0.1-0.8-0.2-1.2-0.3c-5.6-1.3-11.4-2-17.2-2.1c0.9-3,1.6-5.1,1.6-5.3
	c0.7-2.3-0.7-4.8-3-5.4c-0.4-0.1-0.8-0.2-1.2-0.2c-3.2,0-6.4,0.4-9.4,1.3c0-5.2-0.4-10.5-1.2-15.6c-0.4-2.4-2.7-4-5.1-3.6
	c-0.5,0.1-1,0.3-1.4,0.5c-25.4,14.5-28.4,56.9-28.5,58.7c0,0,0,0.1,0,0.1l-1,26.6l0,0.3c-0.1,4.7,3.2,8.8,7.8,9.6l11.7,2.1
	c1.8,0.3,3.5-0.5,4.5-2l6.4-10.1c4.2-1.9,16-8.3,19.8-21.3c9.3-0.1,22.2,1.3,34.8,7.7c1.3,8.3,3.6,16.4,6.7,24.2
	c5,12.2,11.7,21.5,19.9,27.8l-10,28.7c-1.6,4.5-0.7,9.4,2.2,13.1l6.7,8.5c2.6,3.3,6.6,5.3,10.9,5.3c2,0,3.9,1.2,4.7,3.1
	c-5,3-8.1,8.4-8.1,14.2V489c0,2,1.3,3.7,3.2,4.2l9.5,2.6c2.3,0.6,4.8-0.7,5.4-3.1c0,0,0-0.1,0-0.1l1-4.2c0.4-1.8,1.5-3.3,2.9-4.4
	l-1.1,11.4c-0.2,1.9,0.9,3.7,2.6,4.4l9.4,4.2c2.2,1,4.8,0,5.8-2.2c0.1-0.2,0.1-0.3,0.2-0.5l0.7-2.1c2.4,3.1,5,6,7.7,8.8
	c11.5,11.2,31.8,23.8,64.9,23.8c3.1,0,6.4-0.1,9.7-0.4c13.2,0,28.4-3.5,42.2-15l14-10c0.2-0.1,0.3-0.3,0.5-0.4l4.9-4.7
	c8.2-7.9,13.1-18.6,13.6-30l0.9-19.7c0.1-2.4-1.8-4.5-4.2-4.6c-1.2-0.1-2.3,0.4-3.2,1.1l-15.4,14c-8.2,7.4-13.3,17.6-14.3,28.6
	l-0.5,5.2c-16.5,17.6-46.9,11.4-47.1,11.4c-24-5.5-27.5-30.3-27.9-33c0.5-54.2-9.2-74.8-14.6-82.1c10.9-12.2,26.3-19.2,46-20.7
	c9.8-0.8,19.7-0.1,29.3,1.9c2.4,0.6,4.7-0.9,5.3-3.2c0-0.1,0-0.2,0.1-0.3c5.5-31.1,19-53.5,40.2-66.6c15.9-9.8,30.4-10.5,30.5-10.5
	c2.3-0.1,4.1-1.9,4.2-4.1c0.8-14.8,5.5-25.8,14-32.5c13.2-10.6,31.7-7.7,31.8-7.7c2.4,0.4,4.7-1.2,5.1-3.6c0.1-0.7,0.1-1.5-0.2-2.2
	C530.7,212.8,501.3,195.3,456.4,191.8L456.4,191.8z M200.8,263.6c-26.4-45-57.4-66.7-79.5-77c-1.3-6.3-4.2-26.9,6.4-45.3
	c7-12.1,18.5-21,34.3-26.6c-2,9.5-0.7,19.3,3.8,27.9c9.1,17,30.4,28.4,63.3,33.9c-1.1,10.9-0.4,22,1.9,32.7
	c4,18.5,14.9,44.4,44.2,65.1c-5.2,8.2-15,28.5-6.2,53.4c-4.2,0.4-7.5,0.9-9.4,1.2c-6.6-3.7-13.5-6.8-20.7-9.3c0.1-0.7,0.1-1.4-0.1-2
	c-0.3-1-8.2-25.5-13.8-38.3c-0.9-2.2-3.5-3.3-5.7-2.4c-2.2,0.9-3.3,3.5-2.4,5.7c0,0,0,0.1,0,0.1c4.1,9.4,9.7,25.9,12.2,33.5
	c-1.7-0.5-3.4-1.1-5.3-1.6C222.7,310.9,215.8,289.2,200.8,263.6L200.8,263.6z M267.4,451.8c-1.6,0-3-0.7-4-1.9l-6.7-8.5
	c-1.1-1.4-1.4-3.2-0.8-4.8l9.2-26.5c2.5,1.7,4.8,3.2,6.7,4.5c-4.5,4.1-6.8,10.2-6,16.2l1.2,9.3c0.9,6.6,5.1,12.2,11.2,14.8l0.3,0.1
	c2.4,1,4.4,3,5.3,5.5l-3.3,0.5l-0.3-0.8C278.1,455.1,273,451.7,267.4,451.8L267.4,451.8z M296.2,494l-2-0.9l0.8-8.7
	c0.7,1.5,1.5,3.2,2.6,5.2L296.2,494z M318,501.9c-5.7-5.5-10.5-11.9-14-19.1l1.6,0c2.2,0,4.1-1.5,4.5-3.7l1.3-8.2
	c5.2,13.9,14.6,32.5,30.8,46.1C333.1,513.7,324.9,508.6,318,501.9L318,501.9z M530.4,239.1c-7.9,0-20.6,1.6-31.1,10
	c-9.7,7.8-15.5,19.6-17,35.2c-10.8,1.7-21.2,5.5-30.5,11.2c-15.7,9.6-35.8,29.2-43.8,68.5c-9-1.5-18.2-1.9-27.3-1.2
	c-23.5,1.8-42.5,11.1-54.9,27c-0.8,0.9-1.2,2.2-1,3.4c0.2,1.2,0.9,2.2,1.9,2.8c1,0.9,14.8,14.9,14.2,78.6c0,0.2,0,0.3,0,0.5
	c0.8,6.2,2.6,12.1,5.4,17.7c6.2,12.3,16.3,20.3,29.3,23.3c1.5,0.3,37,7.6,56.6-15.2c0.6-0.7,1-1.5,1-2.4l0.6-6.7
	c0.8-8.8,4.9-17,11.5-23l7.6-6.9l-0.4,9.1c-0.4,9.1-4.3,17.8-10.9,24.1l-4.7,4.5l-13.9,9.9c-0.1,0.1-0.2,0.1-0.3,0.2
	c-28.4,23.8-64.7,7.8-67.7,6.4c-30.2-19.3-39.5-59.6-40.7-65.3l1.5-9.4c0.4-2.4-1.2-4.7-3.6-5.1c-2.4-0.4-4.7,1.2-5.1,3.6
	c0,0.1,0,0.1,0,0.2L302,474l-10.7-0.3c-7.7-0.2-14.5,5-16.5,12.4l-1.9-0.5v-7.8c0-3.9,2.8-7.2,6.6-7.7l10.1-1.6
	c2.1-0.3,3.7-2.2,3.7-4.3c0-7.5-4.5-14.3-11.4-17.2l-0.3-0.1c-3.2-1.4-5.5-4.4-5.9-7.9l-1.2-9.3c-0.6-5.2,2.8-10,7.9-11l15.1-3
	c3.2-0.6,6.4,0.3,8.8,2.5l9.6,9.1c1.7,1.7,4.5,1.6,6.2-0.1c1.7-1.7,1.6-4.5-0.1-6.2c0,0,0,0-0.1-0.1l-9.6-9.1
	c-4.4-4.2-10.6-6-16.6-4.8l-15.1,3l-1.2-0.8c-3.2-2.2-8-5.6-14.3-9.6c-14.3-9.1-20.9-27.6-23.9-40c2,1.6,3.9,3.2,5.8,5
	c1.7,1.7,4.5,1.7,6.2-0.1c1.7-1.7,1.7-4.5-0.1-6.2c-30.5-30-71.1-20.5-72.8-20.1c-2.3,0.6-3.8,3-3.1,5.4c0.6,2.3,2.9,3.7,5.2,3.2
	c0.1,0,1.5-0.4,4.1-0.7c-4.5,9-14.5,13-14.6,13c-0.9,0.3-1.7,1-2.2,1.8l-5.6,8.8l-8.8-1.6c-0.3-0.1-0.6-0.4-0.6-0.7l1-26.7
	c0.1-1.5,2.6-32.5,18.4-47.4c0.4,3.9,0.3,7.8-0.1,11.7c-3.7,3.1-6.6,7.1-8.5,11.6c-2.3,5.4-3.5,11.1-3.7,16.9c0,2.4,2,4.4,4.4,4.4h0
	c2.4,0,4.4-2,4.4-4.4c0-0.9,0.3-20.9,15.7-25.2c-1.9,6-4.6,13.7-6.6,17.2c-1.2,2.1-0.5,4.8,1.6,6c2.1,1.2,4.8,0.5,6-1.6
	c0,0,0-0.1,0.1-0.1c1.9-3.7,3.5-7.4,4.8-11.3c6.1-0.2,12.2,0.4,18.2,1.8c30,7,45.8,16.8,45.9,16.9c1,0.6,2.2,0.8,3.3,0.6
	c0.2,0,20.4-4.3,40.3,0c11,2.4,17.3-9.9,22.8-20.7c2.6-5,5.2-10.2,7.8-12.8c48.3-49.8,63.1-81.9,66.5-100.8
	c8.3-1.4,32.7-4.9,58.7-2.8C494.1,203.6,519.2,216.5,530.4,239.1L530.4,239.1z"/>
<circle class="st1" cx="162.5" cy="350.8" r="4.8"/>
</svg>
