<?xml version="1.0" encoding="utf-8"?>
<!-- Generator: Adobe Illustrator 22.1.0, SVG Export Plug-In . SVG Version: 6.00 Build 0)  -->
<svg version="1.1" id="Layer_1" xmlns="http://www.w3.org/2000/svg" xmlns:xlink="http://www.w3.org/1999/xlink" x="0px" y="0px"
	 viewBox="0 0 636.2 644.6" style="enable-background:new 0 0 636.2 644.6;" xml:space="preserve">
<style type="text/css">
	.st0{fill:#EDA400;}
	.st1{fill:#FFD578;}
</style>
<ellipse class="st0" cx="318.1" cy="322.3" rx="318.1" ry="322.3"/>
<g>
	<g>
		<path class="st1" d="M462.4,241.8c-1.7-3.4-4.3-5.1-7.7-5.1H354l99.8-157.9c1.7-2.6,1.7-6,0-8.5c-1.7-2.6-4.3-4.3-7.7-4.3H309.6
			c-3.4,0-6,1.7-7.7,4.3l-128,256c-1.7,2.6-1.7,6,0,8.5s5.1,4.3,7.7,4.3h87.9L174,566.9c-1.7,3.4,0,7.7,3.4,10.2
			c0.9,0.9,2.6,0.9,4.3,0.9c2.6,0,5.1-0.9,6.8-2.6l273.1-324.3C463.2,248.6,464.1,245.2,462.4,241.8z M211.5,520.8L290,333.1
			c0.9-2.6,0.9-5.1-0.9-7.7c-1.7-1.7-4.3-3.4-6.8-3.4h-87L314.8,83.1h116.1L330.1,240.9c-1.7,2.6-1.7,6,0,8.5s4.3,4.3,7.7,4.3h99
			L211.5,520.8z"/>
	</g>
</g>
</svg>
