<?xml version="1.0" encoding="utf-8"?>
<!-- Generator: Adobe Illustrator 22.1.0, SVG Export Plug-In . SVG Version: 6.00 Build 0)  -->
<svg version="1.1" id="Capa_1" xmlns="http://www.w3.org/2000/svg" xmlns:xlink="http://www.w3.org/1999/xlink" x="0px" y="0px"
	 viewBox="0 0 636.2 644.6" style="enable-background:new 0 0 636.2 644.6;" xml:space="preserve">
<style type="text/css">
	.st0{fill:#E22D72;}
	.st1{fill:#F28FB5;}
</style>
<ellipse class="st0" cx="318.1" cy="322.3" rx="318.1" ry="322.3"/>
<g>
	<path class="st1" d="M266.8,159.9h15.8c4.4,0,7.9-3.5,7.9-7.9s-3.5-7.9-7.9-7.9h-15.8v-15.8c0-4.4-3.5-7.9-7.9-7.9
		s-7.9,3.5-7.9,7.9v15.8h-15.8c-4.4,0-7.9,3.5-7.9,7.9s3.5,7.9,7.9,7.9H251v15.8c0,4.4,3.5,7.9,7.9,7.9s7.9-3.5,7.9-7.9V159.9z"/>
	<path class="st1" d="M495.4,333.3c-17.4,0-31.5,14.1-31.5,31.5s14.1,31.5,31.5,31.5s31.5-14.1,31.5-31.5
		C526.9,347.5,512.8,333.3,495.4,333.3z M495.4,380.6c-8.7,0-15.8-7.1-15.8-15.8c0-8.7,7.1-15.8,15.8-15.8s15.8,7.1,15.8,15.8
		C511.1,373.5,504.1,380.6,495.4,380.6z"/>
	<path class="st1" d="M235.3,238.7c-17.4,0-31.5,14.1-31.5,31.5s14.1,31.5,31.5,31.5s31.5-14.1,31.5-31.5S252.7,238.7,235.3,238.7z
		 M235.3,286c-8.7,0-15.8-7.1-15.8-15.8s7.1-15.8,15.8-15.8s15.8,7.1,15.8,15.8S244,286,235.3,286z"/>
	<path class="st1" d="M125.7,488.3l33.4,33.4c1.5,1.5,3.5,2.3,5.6,2.3s4.1-0.8,5.6-2.3L298,394.1c3.1-3.1,3.1-8.1,0-11.1
		c-3.1-3.1-8.1-3.1-11.1,0l-55.2,55.2l-22.3-22.3l152.5-152.5l17,5.3l5.3,17L337,332.9c-3.1,3.1-3.1,8.1,0,11.1
		c3.1,3.1,8.1,3.1,11.1,0l41.3-41.3l9.4,30.3c1.9,6.2,10.1,7.6,13.9,2.2l38.9-54.6H519c3,0,5.7-1.7,7.1-4.4c1.3-2.7,1-5.9-0.8-8.3
		l-40.2-53.5l21.6-63.7c1-2.8,0.2-6-1.9-8.1s-5.3-2.9-8.1-1.9L433,162.3l-53.5-40.2c-2.4-1.8-5.6-2.1-8.3-0.8
		c-2.7,1.3-4.4,4.1-4.4,7.1v67.4l-54.6,38.9c-2.4,1.7-3.7,4.7-3.2,7.7s2.6,5.4,5.4,6.3l30.3,9.4l-219,219c-1.5,1.5-2.3,3.5-2.3,5.6
		S124.2,486.8,125.7,488.3L125.7,488.3z M379.4,206.3c2.1-1.5,3.3-3.9,3.3-6.4v-55.6l44.2,33.2c2.1,1.6,4.8,2,7.3,1.2l52.5-17.8
		l-17.8,52.5c-0.8,2.5-0.4,5.2,1.2,7.3l33.2,44.2h-55.6c-2.5,0-4.9,1.2-6.4,3.3l-32,44.9c-2-6.5-14.8-47.6-16.5-53
		c-0.8-2.5-2.7-4.4-5.2-5.2c-38.8-12.1-14.2-4.4-53-16.5L379.4,206.3z M198.2,427l22.3,22.3L164.7,505l-22.3-22.3L198.2,427z"/>
	<circle class="st1" cx="317.3" cy="363.3" r="7.9"/>
</g>
</svg>
