<?xml version="1.0" encoding="utf-8"?>
<!-- Generator: Adobe Illustrator 22.1.0, SVG Export Plug-In . SVG Version: 6.00 Build 0)  -->
<svg version="1.1" id="Capa_1" xmlns="http://www.w3.org/2000/svg" xmlns:xlink="http://www.w3.org/1999/xlink" x="0px" y="0px"
	 viewBox="0 0 636.2 644.6" style="enable-background:new 0 0 636.2 644.6;" xml:space="preserve">
<style type="text/css">
	.st0{fill:#91201A;}
	.st1{fill:#D3433C;}
</style>
<ellipse class="st0" cx="318.1" cy="322.3" rx="318.1" ry="322.3"/>
<g>
	<g>
		<path class="st1" d="M261,163.3c0-2-0.7-4-2.1-5.4s-3.3-2.3-5.3-2.3s-4,0.7-5.4,2.1c-1.4,1.4-2.3,3.3-2.3,5.3c0,2,0.7,4,2.1,5.4
			c1.4,1.4,3.3,2.3,5.3,2.3c2,0,4-0.7,5.4-2.1C260.1,167.2,261,165.3,261,163.3z"/>
	</g>
</g>
<g>
	<g>
		<path class="st1" d="M366.7,149.7l-20.3-20.9c-18.2-18.8-48.3-19.3-67.2-1.1l-11.9,11.5c-3,2.9-3.1,7.7-0.2,10.7
			c2.9,3,7.7,3.1,10.7,0.2l11.9-11.5c12.8-12.4,33.4-12.1,45.8,0.7l20.3,20.9c2.9,3,7.7,3.1,10.7,0.2
			C369.5,157.5,369.6,152.7,366.7,149.7z"/>
	</g>
</g>
<g>
	<g>
		<path class="st1" d="M505.5,309.3l-54.7-56.5c3.1-7.8,4.8-16.2,4.9-24.9c0.2-18.3-6.9-35.8-19.8-49.1l-73.8-76.2
			c-26.6-27.5-70.7-28.2-98.1-1.6l-75.2,72.8c-21.6,20.9-34.3,48.9-35.9,78.9l-0.7,13.9c-2.7,1-5.3,2.5-7.5,4.7l-36.9,35.8
			c-8.4,8.1-8.6,21.5-0.5,29.9l84.1,86.9l-14.1,13.7c-8.4,8.1-8.6,21.5-0.5,29.9l86.2,89c8.1,8.4,21.5,8.6,29.9,0.5l36.9-35.8
			c2.2-2.1,3.8-4.7,4.9-7.3l13.9-0.3c30-0.6,58.4-12.5,80-33.4l75.2-72.8C531.4,380.8,532.1,336.8,505.5,309.3z M168,253.6
			c1.4-26.2,12.5-50.6,31.3-68.8l75.2-72.8c21.5-20.8,55.9-20.3,76.8,1.2l73.8,76.2c20.8,21.5,20.5,55.7-0.8,76.3l-14.7,14.2l0,0
			c-15.1-15.6-40-16-55.6-0.9l-37.8,36.6c-3,2.9-3.1,7.7-0.2,10.7c2.9,3,7.7,3.1,10.7,0.2l37.8-36.6c9.6-9.3,24.9-9,34.2,0.5
			c9.3,9.6,9,24.9-0.5,34.2l-20.5,19.9c-19.3,18.7-44.8,28.8-71.7,28.4l-34.5-0.5c-0.3-0.6-0.7-1.2-1.2-1.7l-9.5-9.8l-86.2-89
			l-7.2-7.4L168,253.6z M212.9,415.7c-2.4,2.3-6.2,2.3-8.5-0.1l-86.2-89c-2.3-2.4-2.3-6.2,0.1-8.5l6.5-6.3l47.3,48.9
			c2.9,3,7.7,3.1,10.7,0.2c3-2.9,3.1-7.7,0.2-10.7l-47.3-48.9l19.5-18.9c2.4-2.3,6.2-2.3,8.5,0.1l86.2,89c2.3,2.4,2.3,6.2-0.1,8.5
			L212.9,415.7z M299.9,529.4L270.4,499c-2.9-3-7.7-3.1-10.7-0.2c-3,2.9-3.1,7.7-0.2,10.7l29.5,30.4l-6.5,6.3
			c-2.4,2.3-6.2,2.3-8.5-0.1l-86.2-89c-2.3-2.4-2.3-6.2,0.1-8.5l16.9-16.3c6.6,1.3,13.6-0.6,18.8-5.6l11.9-11.6l45.2,46.7l38.9,40.2
			c2.3,2.4,2.3,6.2-0.1,8.5L299.9,529.4z M418.2,469.4L418.2,469.4c-18.8,18.2-43.6,28.6-69.8,29.1l-10.9,0.2l-7.2-7.4l-38.9-40.2
			l-45.2-46.7l14.1-13.7c1.1-1.1,2.1-2.3,2.9-3.5l42.5,0.7c31,0.5,60.3-11.1,82.5-32.6l20.5-19.9c11.7-11.4,14.8-28.3,9.2-42.6
			l16.8-16.3c3.1-3,5.9-6.3,8.4-9.8l51.4,53.1c20.8,21.5,20.3,55.9-1.2,76.8L418.2,469.4z"/>
	</g>
</g>
<g>
	<g>
		<path class="st1" d="M251,482.1c0-2-0.7-4-2.1-5.4c-1.4-1.4-3.3-2.3-5.3-2.3c-2,0-4,0.7-5.4,2.1c-1.4,1.4-2.3,3.3-2.3,5.3
			c0,2,0.7,4,2.1,5.4c1.4,1.4,3.3,2.3,5.3,2.3c2,0,4-0.7,5.4-2.1S250.9,484.1,251,482.1z"/>
	</g>
</g>
<g>
	<g>
		<path class="st1" d="M478.9,324.2l-13.6-14c-2.9-3-7.7-3.1-10.7-0.2c-3,2.9-3.1,7.7-0.2,10.7l13.6,14
			c12.4,12.8,12.1,33.4-0.7,45.8l-31,30.1c-3,2.9-3.1,7.7-0.2,10.7c2.9,3,7.7,3.1,10.7,0.2l31-30.1
			C496.6,373.1,497.1,343,478.9,324.2z"/>
	</g>
</g>
</svg>
