<?xml version="1.0" encoding="utf-8"?>
<!-- Generator: Adobe Illustrator 22.1.0, SVG Export Plug-In . SVG Version: 6.00 Build 0)  -->
<svg version="1.1" id="flame" xmlns="http://www.w3.org/2000/svg" xmlns:xlink="http://www.w3.org/1999/xlink" x="0px" y="0px"
	 viewBox="0 0 636.2 644.6" style="enable-background:new 0 0 636.2 644.6;" xml:space="preserve">
<style type="text/css">
	.st0{fill:#C11E1E;}
	.st1{fill:#F74811;}
	.st2{fill:#F48414;}
</style>
<ellipse class="st0" cx="318.1" cy="322.3" rx="318.1" ry="322.3"/>
<g>
	<circle class="st1" cx="181.5" cy="218.9" r="7.4"/>
	<circle class="st1" cx="233.2" cy="152.5" r="7.4"/>
	<circle class="st1" cx="233.2" cy="108.2" r="7.4"/>
	<circle class="st1" cx="203.7" cy="182" r="7.4"/>
	<circle class="st1" cx="403" cy="159.9" r="7.4"/>
	<circle class="st1" cx="174.1" cy="130.3" r="7.4"/>
	<circle class="st1" cx="454.7" cy="152.5" r="7.4"/>
	<circle class="st1" cx="462" cy="241.1" r="7.4"/>
	<circle class="st1" cx="159.4" cy="292.7" r="7.4"/>
	<circle class="st1" cx="417.7" cy="123" r="7.4"/>
	<path class="st1" d="M467.8,324.9c-1.8-3.7-6.2-5.2-9.9-3.4c-3.7,1.8-5.2,6.2-3.4,9.9c11,22.5,16.1,47.8,14.7,73.1
		c-4.1,74.1-65.3,135.1-139.4,139c-41,2.1-79.9-12.2-109.6-40.3c-29.7-28.2-46-66.2-46-107.1c0-35.4,12.4-68.8,34.6-95.1
		c-7.2,30.9-5.2,64.2-5.1,66c0.1,2.1,1.1,4,2.8,5.3c1.6,1.3,3.7,1.8,5.8,1.5c2.1-0.3,50.5-9.3,50.5-88.5c0-29.9,2.5-56.2,5.4-76.7
		c1.9,2.6,4.6,4.7,7.6,5.8c4.4,1.7,9.4,1.5,13.7-0.6c6.4-3.2,10.1-10.2,9.2-17.3c-6.7-57.1,14-80.9,28-90.3
		c-1.2,22.2,10.3,47,33,86.8c14.4,25.3,23.5,60.1,29,81c5,19.2,6.3,24.4,13.9,23.5c7.8-1,7.8-8.1,7.8-26.9c0-22.1,3.2-37.6,7-48
		c2.2,26.7,11.2,53.3,19.5,73c1.6,3.8,5.9,5.5,9.7,3.9c3.8-1.6,5.5-5.9,3.9-9.7c-10.4-24.7-22-60.7-18-92.2c0.4-2.9-1-5.7-3.4-7.2
		c-2.5-1.5-5.6-1.5-8,0.1c-2.2,1.5-19.5,14.3-24.2,57.1c-5.7-19.7-13.5-43.1-24.3-62c-28.9-50.5-35.4-70.7-28.9-90
		c0.8-2.5,0.2-5.3-1.6-7.3c-1.8-2-4.5-2.8-7.2-2.2c-0.7,0.2-16.5,4.1-30.5,20.4c-12.5,14.5-26.2,42.2-20.3,91.6c0.1,1-0.3,2-1.2,2.4
		c-0.7,0.4-1.3,0.2-1.8,0.1c-0.4-0.1-1-0.5-1.4-1.4c-3.3-8.5-6.4-21.9-2.4-37.7c1-3.9-1.4-7.9-5.3-8.9c-3.9-1-7.9,1.2-9,5.1
		c-0.6,2.2-15,53.5-15,127.5c0,47-18.6,64.4-29.8,70.6c-0.1-18.3,1.5-56.9,15.6-79c1.7-2.6,1.5-6-0.3-8.4c-1.2-1.6-2.9-2.6-4.9-2.9
		c-1.9-0.3-3.9,0.3-5.5,1.5c-40.4,31-63.6,78-63.6,128.9c0,45,18,86.9,50.6,117.8c30.5,28.9,69.9,44.6,111.7,44.6
		c2.9,0,5.9-0.1,8.9-0.2c81.5-4.3,148.9-71.5,153.4-153C485.5,377.5,479.9,349.6,467.8,324.9L467.8,324.9z"/>
	<path class="st2" d="M272,362c-2.6-2.4-6.6-2.6-9.5-0.4c-24.3,18.6-38.2,46.8-38.2,77.3c0,27,10.8,52.1,30.4,70.7
		c18.3,17.3,41.9,26.7,67,26.7c1.8,0,3.5,0,5.3-0.1c48.9-2.6,89.3-42.9,92-91.7c0.9-16.7-2.4-33.4-9.7-48.2
		c-1.8-3.7-6.2-5.2-9.9-3.4c-3.7,1.8-5.2,6.2-3.4,9.9c6.2,12.6,9,26.8,8.2,40.9c-2.3,41.4-36.6,75.6-78,77.8
		c-22.9,1.2-44.7-6.8-61.3-22.6c-16.6-15.8-25.8-37.1-25.8-60c0-15.3,4.1-30,11.8-42.6c-1.6,13.6-0.9,25.1-0.8,25.9
		c0.1,2.1,1.1,4,2.8,5.3c1.6,1.3,3.7,1.8,5.8,1.5c1.3-0.2,31.9-5.9,31.9-54.4c0-24.6,17-59,30.4-82.2c1,13.8,3.8,29.9,8.5,46.6
		c1.5,5.5,15.6,53.8,34.9,51c12-1.6,12-18.4,12-23.9c0-4.2,0.2-7.9,0.5-11.2c2.3,10,5.7,19.3,8.9,26.9c1.6,3.8,5.9,5.5,9.7,3.9
		c3.8-1.6,5.5-5.9,3.9-9.7c-5.9-14-12.4-34.3-10.2-51.9c0.4-2.9-1-5.7-3.4-7.2c-2.5-1.5-5.6-1.5-8,0.1c-1.7,1.1-16.1,11.8-16.1,49
		c0,3.3-0.2,5.6-0.5,7.2c-4.4-5-11.8-17.9-17.4-38.2c-9.3-33.3-9.8-58.9-6.3-69.5c1.2-3.5-0.4-7.3-3.7-8.9c-3.3-1.6-7.3-0.6-9.4,2.4
		c-2,2.9-48.4,71-48.4,115.6c0,19.6-5.8,29.7-11.1,34.8c0.4-12,2.4-28.4,8.5-38C275.2,368.4,274.7,364.5,272,362L272,362z"/>
	<path class="st1" d="M436.6,454.4c1.1,0.5,2.2,0.8,3.3,0.8c2.7,0,5.3-1.5,6.6-4.1c23.2-46.5,8.4-92.3,7.8-94.2
		c-1.3-3.9-5.5-6-9.3-4.7c-3.9,1.3-6,5.5-4.7,9.3c0.1,0.4,13.6,41.9-7,82.9C431.5,448.1,432.9,452.5,436.6,454.4L436.6,454.4z"/>
</g>
</svg>
