<?xml version="1.0" encoding="utf-8"?>
<!-- Generator: Adobe Illustrator 22.1.0, SVG Export Plug-In . SVG Version: 6.00 Build 0)  -->
<svg version="1.1" id="Capa_1" xmlns="http://www.w3.org/2000/svg" xmlns:xlink="http://www.w3.org/1999/xlink" x="0px" y="0px"
	 viewBox="0 0 636.2 644.6" style="enable-background:new 0 0 636.2 644.6;" xml:space="preserve">
<style type="text/css">
	.st0{fill:#5A3BAD;}
	.st1{fill:#8C68DD;}
</style>
<ellipse class="st0" cx="318.1" cy="322.3" rx="318.1" ry="322.3"/>
<path class="st1" d="M528.1,337.7c-21.3-23.1-32.1-65.5-17.7-94c15.8-31.1,9.5-68.8-15.2-93.5c-30-30-65.3-22.6-72.7-23.7
	c-43.3,0-83.9,16.9-114.5,47.4c-15.6,15.6-18.9,23.7-72,96.6c-41.7,58.3-97.5,106.1-161.4,138c-6.7,3.4-10.8,10.7-9.7,18.5
	c0.5,4,2.6,7.7,5.5,10.6c35.3,35,86.4,44.6,130.5,28.9c31,27.2,76.3,29.3,109.6,6.5c0,0,0,0,0.1,0c16.9,11.5,45.6,16.8,66.3,15.2
	c0.1-0.1,0.2-0.1,0.4-0.2c15-6.3,38.9-30.4,44.1-35.9l107.9-111 M490,346.5l-90,90c-16.5,16.5-41.7,20.3-61.7,11.2v-0.1l62.2-62.2
	c6.8-6.8,7.5-18,1-25.1c-6.9-7.6-18.7-7.8-25.9-0.6L298,437.3c-16.7,16.7-41.8,20.1-61.9,10.1v-0.1c3.9-3.1,7.7-6.4,11.3-10
	l76.4-76.4c6.8-6.8,7.5-18,1-25.1c-6.9-7.6-18.7-7.8-25.9-0.6l-77,76.8c-28.7,28.7-72.2,33.8-106.2,15.3v-0.1
	c58.6-33.9,109.9-80.4,149.4-135.7c54.9-75.7,55.8-79.8,68.2-92.1c23.8-23.8,55.5-37,89.2-37c8.6,1,28.7-4.3,46.2,12.1
	c14.7,13.8,18.2,35.9,9.3,54c-19,38.7-14,84.4,12,117.9V346.5z"/>
</svg>
