<?xml version="1.0" encoding="utf-8"?>
<!-- Generator: Adobe Illustrator 22.1.0, SVG Export Plug-In . SVG Version: 6.00 Build 0)  -->
<svg version="1.1" id="Layer_1" xmlns="http://www.w3.org/2000/svg" xmlns:xlink="http://www.w3.org/1999/xlink" x="0px" y="0px"
	 viewBox="0 0 636.2 644.6" style="enable-background:new 0 0 636.2 644.6;" xml:space="preserve">
<style type="text/css">
	.st0{fill:#3E1F4C;}
	.st1{fill:#794C8E;}
</style>
<ellipse class="st0" cx="318.1" cy="322.3" rx="318.1" ry="322.3"/>
<path class="st1" d="M155.8,306.1v104.2c0.1,13.8,3.2,27.4,9.2,39.8c26.4,55.1,103.7,92.1,192.3,92.1c93.7,0,164.2-33.5,193.5-92
	c1.3-2.5,1-5.6-0.8-7.8c-1.8-2.2-4.6-3.2-7.4-2.6c-34.7,8-50-11-55-19.5c-6.3-11.3-9.6-24.1-9.4-37.1v-61.7l47.6-47.6
	c11.5-11.5,14.9-28.9,8.7-43.9c-6.2-15.1-20.9-24.9-37.2-24.9c-9.8,0-19.3,3.7-26.6,10.3c-20.4-65.8-80.5-111.2-149.3-112.8
	c-68.8-1.7-131,40.8-154.6,105.5c-17.7-7-38-0.6-48.5,15.3c-10.5,16-8.3,37.1,5.2,50.6L155.8,306.1z M314.8,117.1
	c67.6-1.1,127.1,44.3,144,109.8l-44.4,44.4c-1.9,1.8-2.7,4.6-2,7.1c0.7,2.6,2.7,4.6,5.2,5.2c2.6,0.7,5.3-0.1,7.1-2l54.4-54.4
	c10.2-9.7,26.1-9.7,36.3,0c10,10,10,26.3,0,36.3l-49.7,49.7l-4.6,4.6c-1.8,1.7-2.5,4.3-2,6.7c0.5,2.4,2.2,4.4,4.5,5.4v53.2
	c-0.2,15.5,3.7,30.9,11.3,44.4c11.4,19.4,33,30.6,55.4,28.6c-30.2,45.5-92.3,71.3-173,71.3c-81.8,0-155.5-34.4-179.1-83.8
	c-5.1-10.4-7.7-21.9-7.8-33.5V267.1c0-15.8,2.5-31.6,7.4-46.6C196.6,160.2,251.7,118.6,314.8,117.1z M134,227.2
	c7.5-7.3,18.6-9.4,28.2-5.3c-4.2,14.7-6.4,29.9-6.4,45.2v18.2L134,263.5c-4.8-4.8-7.5-11.3-7.5-18.1
	C126.4,238.6,129.2,232,134,227.2z"/>
<path class="st1" d="M195.2,275.6l25.3-2.8l1,9c0.3,2.3,1.6,4.4,3.7,5.6c2.1,1.2,4.5,1.3,6.7,0.3l47-21.8c2.5-1.2,4.2-3.7,4.2-6.5
	c0-2.8-1.5-5.4-4.1-6.6l-66.2-32.2c-1.9-0.9-4-1-5.9-0.2c-1.9,0.8-3.4,2.3-4.1,4.3l-15.2,41.3c-0.9,2.4-0.5,5.1,1.1,7.1
	C190.2,274.8,192.7,275.8,195.2,275.6L195.2,275.6z M213.7,237.2l45,21.9l-23.8,11l-0.7-6.2c-0.4-3.7-3.5-6.5-7.3-6.5
	c-0.3,0-0.6,0-0.8,0.1l-20.8,2.3L213.7,237.2z"/>
<path class="st1" d="M299.3,265.9l47,21.7c1,0.4,2,0.7,3.1,0.7c3.7,0,6.9-2.8,7.3-6.5l1-9l25.3,2.8c2.5,0.3,5-0.8,6.6-2.8
	c1.6-2,2-4.7,1.1-7.1l-15.2-41.3c-0.7-1.9-2.2-3.5-4.1-4.3c-1.9-0.8-4.1-0.7-5.9,0.2l-66.2,32.2c-2.5,1.2-4.2,3.8-4.1,6.7
	C295,262.2,296.7,264.7,299.3,265.9L299.3,265.9z M364.5,237.1l8.3,22.5l-20.8-2.3c-4-0.4-7.6,2.5-8.1,6.5l-0.7,6.2l-23.8-11
	L364.5,237.1z"/>
<path class="st1" d="M263.5,305.2c-0.2-0.2-0.3-0.4-0.5-0.6c-0.2-0.1-0.4-0.2-0.6-0.3c-0.4-0.3-0.8-0.5-1.3-0.7
	c-0.4-0.2-0.9-0.3-1.3-0.4c-0.5-0.1-0.9-0.1-1.4-0.1c-0.5,0-0.9,0-1.4,0.1c-0.5,0.1-0.9,0.2-1.3,0.4c-0.4,0.2-0.9,0.4-1.3,0.7
	c-0.2,0.1-0.4,0.2-0.6,0.3c-0.2,0.2-0.4,0.4-0.5,0.6c-0.2,0.2-0.4,0.3-0.6,0.5L229,335.2l-23.6-29.5c-1.7-2.2-4.5-3.2-7.2-2.6
	c-2.7,0.6-4.9,2.6-5.6,5.2c-1,3.5-23,87,33.5,111.3c3,1.3,6.6,0.4,8.6-2.2l23.6-29.5l23.6,29.5c1.4,1.7,3.5,2.6,5.7,2.6
	c2.2,0,4.3-1,5.7-2.6L317,388l23.6,29.5l0.1,0.1c0.6,0.8,1.4,1.4,2.3,1.8c0.2,0.1,0.4,0.2,0.6,0.3c0.9,0.4,1.8,0.6,2.8,0.6h0.1
	c0.9,0,1.8-0.2,2.6-0.5c0.1,0,0.2,0,0.2-0.1c56.5-24.2,34.4-107.7,33.5-111.3c-0.1-0.3-0.3-0.5-0.4-0.7c-0.2-0.5-0.4-0.9-0.7-1.3
	c-0.3-0.4-0.6-0.8-0.9-1.1c-0.2-0.2-0.3-0.4-0.5-0.6c-0.2-0.1-0.4-0.2-0.5-0.3c-0.8-0.5-1.7-0.9-2.6-1.1c-0.4-0.1-0.9-0.1-1.3-0.1
	c-0.5,0-1,0-1.5,0.1c-0.2,0-0.4,0-0.6,0c-0.3,0.1-0.5,0.2-0.7,0.4c-0.4,0.2-0.9,0.4-1.3,0.7c-0.4,0.3-0.8,0.6-1.2,1
	c-0.2,0.2-0.4,0.3-0.6,0.5l-23.6,29.5l-23.6-29.5c-0.2-0.2-0.4-0.4-0.6-0.5c-0.2-0.2-0.3-0.4-0.5-0.6c-0.2-0.1-0.4-0.2-0.6-0.3
	c-0.4-0.3-0.8-0.5-1.3-0.7c-0.4-0.2-0.9-0.3-1.3-0.4c-0.5-0.1-0.9-0.1-1.4-0.1c-0.5,0-0.9,0-1.4,0.1c-0.5,0.1-0.9,0.2-1.3,0.4
	c-0.4,0.2-0.9,0.4-1.3,0.7c-0.2,0.1-0.4,0.2-0.6,0.3c-0.2,0.2-0.4,0.4-0.5,0.6c-0.2,0.2-0.4,0.3-0.6,0.5l-23.6,29.5l-23.6-29.5
	C263.9,305.5,263.7,305.3,263.5,305.2z M287.7,354.2c2.2,0,4.3-1,5.7-2.7L317,322l23.6,29.5c1.4,1.7,3.5,2.8,5.7,2.8
	c2.2,0,4.3-1,5.7-2.8l19.4-24.3c3.1,21.6,4.2,60.5-23.1,76.4l-25.6-32c-0.2-0.2-0.4-0.4-0.6-0.5c-0.2-0.2-0.3-0.4-0.5-0.6
	c-0.2-0.1-0.4-0.2-0.6-0.3c-0.4-0.3-0.9-0.5-1.3-0.7c-0.4-0.2-0.8-0.3-1.3-0.4c-0.5-0.1-0.9-0.1-1.4-0.1c-0.4,0-0.9,0-1.3,0.1
	c-0.5,0.1-0.9,0.2-1.4,0.4c-0.4,0.2-0.9,0.4-1.3,0.7c-0.2,0.1-0.4,0.2-0.6,0.3c-0.2,0.2-0.4,0.4-0.5,0.6c-0.2,0.2-0.4,0.3-0.6,0.5
	l-23.6,29.5l-23.6-29.5c-1.4-1.7-3.5-2.6-5.7-2.6c-2.2,0-4.3,1-5.7,2.6l-25.7,32c-27.2-15.8-26.1-54.8-23.1-76.4l19.4,24.2
	c1.4,1.7,3.5,2.6,5.7,2.6s4.3-1,5.7-2.6l23.6-29.5l23.6,29.5C283.3,353.2,285.4,354.2,287.7,354.2z"/>
</svg>
