<?xml version="1.0" encoding="utf-8"?>
<!-- Generator: Adobe Illustrator 22.1.0, SVG Export Plug-In . SVG Version: 6.00 Build 0)  -->
<svg version="1.1" id="Layer_1" xmlns="http://www.w3.org/2000/svg" xmlns:xlink="http://www.w3.org/1999/xlink" x="0px" y="0px"
	 viewBox="0 0 636.2 644.6" style="enable-background:new 0 0 636.2 644.6;" xml:space="preserve">
<style type="text/css">
	.st0{fill:#109E49;}
	.st1{fill:#17E269;}
</style>
<ellipse class="st0" cx="318.1" cy="322.3" rx="318.1" ry="322.3"/>
<g>
	<g>
		<path class="st1" d="M545.2,153.3c-1.4-3.4-4.8-5.7-8.5-5.7c-356.3,0-394.8,147.7-394.8,211.2c0,82.4,62.7,137.7,156.1,137.7
			c117.9,0,142.6-112.2,155.9-172.5c17.8-81.1,57.1-128.5,89.3-160.8C545.8,160.6,546.6,156.7,545.2,153.3z M435.9,320.1
			c-16.8,76.5-42.7,158.1-137.9,158.1c-82.4,0-137.7-48-137.7-119.4c0-56.7,35.1-187,354.8-192.6C484.6,199.5,452,246.7,435.9,320.1
			z"/>
	</g>
</g>
<g>
	<g>
		<path class="st1" d="M398,242.9c-2.2-4.6-7.7-6.4-12.3-4.3c-149.2,72.3-243.9,247.5-243.9,302.1c0,5.1,4.1,9.2,9.2,9.2
			c5.1,0,9.2-4.1,9.2-9.2c0-42.9,82.8-212.5,233.5-285.5C398.3,252.9,400.2,247.4,398,242.9z"/>
	</g>
</g>
</svg>
