<?xml version="1.0" encoding="utf-8"?>
<!-- Generator: Adobe Illustrator 22.1.0, SVG Export Plug-In . SVG Version: 6.00 Build 0)  -->
<svg version="1.1" id="Capa_1" xmlns="http://www.w3.org/2000/svg" xmlns:xlink="http://www.w3.org/1999/xlink" x="0px" y="0px"
	 viewBox="0 0 636.2 644.6" style="enable-background:new 0 0 636.2 644.6;" xml:space="preserve">
<style type="text/css">
	.st0{fill:#6D5A0A;}
	.st1{fill:#997E0E;}
</style>
<ellipse class="st0" cx="318.1" cy="322.3" rx="318.1" ry="322.3"/>
<g>
	<g>
		<path class="st1" d="M556.8,434.4L435.3,156.9c-4.8-11.1-15.3-17.9-27.4-17.9s-22.6,6.9-27.4,17.9L259,434.4
			c-1.4,3.1-1.1,6.6,0.8,9.5c1.8,2.8,5,4.5,8.3,4.5h279.4c3.4,0,6.5-1.7,8.3-4.5C557.8,441.1,558.1,437.5,556.8,434.4z M448.4,248.8
			c-13.5,0-22.7,5-31.6,10c-9.4,5.1-18.2,10-33.8,10c-4.5,0-7.9-3.7-13.9-11.6c-2.1-2.7-4.4-5.6-7-8.3l36.7-84c2.4-5.5,7.6-6,9.1-6
			c1.5,0,6.7,0.4,9.1,6l36.8,84.1C452.1,248.9,450.4,248.8,448.4,248.8z"/>
	</g>
</g>
<g>
	<g>
		<path class="st1" d="M296.7,298.6L254.1,224c-5.4-9.4-15-15-25.8-15.1c0,0-0.1,0-0.1,0c-10.8,0-20.4,5.5-25.8,14.8L79.9,433.4
			c-1.8,3.1-1.8,6.9,0,10s5.1,5,8.6,5H240c-2.5-7.1-2.3-14.9,0.8-22L296.7,298.6z M232.8,278.7c-8.3,0-13.6,3.9-17.5,6.7
			c-3.1,2.3-4.5,3.2-6.5,3.3c-2.6-0.7-8.4-6.9-13.5-13.8l24.1-41.2c2.6-4.5,6.8-5,8.6-5c1.9-0.4,6.1,0.5,8.7,5l37.2,65
			c-0.4,3.5-1.7,9.8-5.7,9.8c-3.6,0-5.1-1.6-9.4-9.9C254.6,290.8,248.4,278.7,232.8,278.7z"/>
	</g>
</g>
</svg>
