<?xml version="1.0" encoding="utf-8"?>
<!-- Generator: Adobe Illustrator 22.1.0, SVG Export Plug-In . SVG Version: 6.00 Build 0)  -->
<svg version="1.1" id="Capa_1" xmlns="http://www.w3.org/2000/svg" xmlns:xlink="http://www.w3.org/1999/xlink" x="0px" y="0px"
	 viewBox="0 0 636.2 644.6" style="enable-background:new 0 0 636.2 644.6;" xml:space="preserve">
<style type="text/css">
	.st0{fill:#5590AA;}
	.st1{fill:#71B3D8;}
</style>
<ellipse class="st0" cx="318.1" cy="322.3" rx="318.1" ry="322.3"/>
<g>
	<path class="st1" d="M222.5,396.7c-4.1,0-7.5,3.4-7.5,7.5v19.7c0,4.1,3.4,7.5,7.5,7.5s7.5-3.4,7.5-7.5v-19.7
		C230,400,226.6,396.7,222.5,396.7L222.5,396.7z"/>
	<path class="st1" d="M230,298.6L338.4,236c3.6-2.1,4.8-6.7,2.7-10.2c-2.1-3.6-6.7-4.8-10.2-2.7l-108.4,62.6L114,223.1
		c-3.6-2.1-8.2-0.8-10.2,2.7s-0.8,8.2,2.7,10.2L215,298.6v70.5c0,4.1,3.4,7.5,7.5,7.5s7.5-3.4,7.5-7.5V298.6z"/>
	<path class="st1" d="M398.1,334.2l42.9-24.8c3.6-2.1,4.8-6.7,2.7-10.2c-2.1-3.6-6.7-4.8-10.2-2.7l-42.9,24.8
		c-3.6,2.1-4.8,6.7-2.7,10.2C390,335.1,394.6,336.3,398.1,334.2z"/>
	<path class="st1" d="M437.3,542.9c4.1,0,7.5-3.4,7.5-7.5V428.8l92.4-53.3c3.6-2.1,4.8-6.7,2.7-10.2c-2.1-3.6-6.7-4.8-10.2-2.7
		l-92.4,53.3l-92.4-53.3c-3.6-2.1-8.2-0.8-10.2,2.7c-2.1,3.6-0.8,8.2,2.7,10.2l92.4,53.3v106.7C429.8,539.6,433.1,542.9,437.3,542.9
		z"/>
	<path class="st1" d="M74.7,393.1l136.1,78.6c7.2,4.2,16.1,4.2,23.3,0l65.5-37.8v57.9c0,7.5,4,14.5,10.5,18.2l116.7,67.4
		c6.5,3.8,14.6,3.8,21.1,0L564.5,510c6.5-3.8,10.5-10.7,10.5-18.2v-50.6c0-4.1-3.4-7.5-7.5-7.5s-7.5,3.4-7.5,7.5v50.6
		c0,2.2-1.2,4.2-3,5.2l-116.7,67.4c-1.9,1.1-4.2,1.1-6.1,0L317.6,497c-1.9-1.1-3-3.1-3-5.2c0-17.4,0-99.7,0-134.7
		c0-2.2,1.2-4.2,3-5.2c20.7-12,79.9-46.1,116.7-67.4c1.9-1.1,4.2-1.1,6.1,0L557,351.8c1.9,1.1,3,3.1,3,5.2v49.1
		c0,4.1,3.4,7.5,7.5,7.5s7.5-3.4,7.5-7.5v-49.1c0-7.5-4-14.5-10.5-18.2l-116.7-67.4c-6.5-3.8-14.6-3.8-21.1,0l-44.9,25.9v-81.7
		c0-8.3-4.5-16-11.7-20.2l-136.1-78.6c-7.2-4.2-16.1-4.2-23.3,0l-28.4,16.4c-3.6,2.1-4.8,6.7-2.7,10.2c2.1,3.6,6.7,4.8,10.2,2.7
		l28.4-16.4c2.6-1.5,5.8-1.5,8.3,0l136.1,78.6c2.6,1.5,4.2,4.2,4.2,7.2v90.4l-56.8,32.8c-6.5,3.8-10.5,10.7-10.5,18.2v59.5l-73,42.1
		c-2.6,1.5-5.8,1.5-8.3,0L82.2,380.1c-2.6-1.5-4.2-4.2-4.2-7.2V215.7c0-3,1.6-5.7,4.2-7.2l77.2-44.6c3.6-2.1,4.8-6.7,2.7-10.2
		c-2.1-3.6-6.7-4.8-10.2-2.7l-77.2,44.6c-7.2,4.2-11.7,11.9-11.7,20.2v157.2C63,381.2,67.5,388.9,74.7,393.1z"/>
	<path class="st1" d="M120.5,206.6c2.1,3.6,6.7,4.8,10.2,2.7l44.4-25.6c3.6-2.1,4.8-6.7,2.7-10.2c-2.1-3.6-6.7-4.8-10.2-2.7
		l-44.4,25.6C119.7,198.4,118.4,203,120.5,206.6z"/>
</g>
</svg>
