<?xml version="1.0" encoding="utf-8"?>
<!-- Generator: Adobe Illustrator 22.1.0, SVG Export Plug-In . SVG Version: 6.00 Build 0)  -->
<svg version="1.1" id="Capa_1" xmlns="http://www.w3.org/2000/svg" xmlns:xlink="http://www.w3.org/1999/xlink" x="0px" y="0px"
	 viewBox="0 0 636 644" style="enable-background:new 0 0 636 644;" xml:space="preserve">
<style type="text/css">
	.st0{fill:#80139B;}
	.st1{fill:#BA25D8;}
</style>
<ellipse class="st0" cx="320.4" cy="322" rx="318.1" ry="322.3"/>
<path class="st1" d="M152.6,408.3c0,94.1,76.6,170.7,170.7,170.7s170.7-76.6,170.7-170.7c0-68.4-40-129.1-102.4-156.3v-57
	c14.1,0,25.6-11.5,25.6-25.6s-11.5-25.6-25.6-25.6h-15l10.1-45.6c1.7-7.6-0.1-15.5-5-21.6c-4.9-6.1-12.2-9.6-20-9.6h-76.9
	c-7.8,0-15.1,3.5-20,9.6c-4.9,6.1-6.7,14-5,21.6l10.1,45.6h-15c-14.1,0-25.6,11.5-25.6,25.6S240.9,195,255,195v57
	C192.6,279.2,152.6,340,152.6,408.3L152.6,408.3z M323.3,561.9c-84.7,0-153.6-68.9-153.6-153.6c0-0.7,0.1-1.3,0.1-2l19.9-9.3
	c40.7-19,88.3-17.2,127.4,4.8c23.9,13.5,50.3,20.2,76.8,20.2c25,0,50-6,73-18.1l9.7-5.1c0.2,3.1,0.3,6.3,0.3,9.5
	C476.9,493,408,561.9,323.3,561.9z M474.3,380.7l-15.4,8.1c-21.7,11.4-45.5,16.7-69.2,16l3.9-3.9c16.3-16.1,38.5-24.6,61.1-23.3
	c8.4,0.5,14.1,0.9,19.3,1.7C474.1,379.9,474.2,380.3,474.3,380.7L474.3,380.7z M276.5,94.5c-0.6-2.5,0-5.2,1.7-7.2
	c1.6-2,4-3.2,6.6-3.2h76.9c2.6,0,5,1.2,6.6,3.2c1.6,2,2.2,4.7,1.7,7.2l-11,49.3h-71.6L276.5,94.5z M246.5,169.4
	c0-4.7,3.8-8.5,8.5-8.5h136.5c4.7,0,8.5,3.8,8.5,8.5c0,4.7-3.8,8.5-8.5,8.5H255C250.3,177.9,246.5,174.1,246.5,169.4z M347,195
	l-5.1,25.6h-37.2l-5.1-25.6H347z M266.7,265.6c3.3-1.3,5.4-4.4,5.4-7.9V195h10.1l7.2,35.8c0.8,4,4.3,6.9,8.4,6.9h51.2
	c4.1,0,7.6-2.9,8.4-6.9l7.2-35.8h10.1v62.7c0,3.5,2.1,6.6,5.4,7.9c43.9,17.4,76.2,52.9,89.8,96.1c-4.3-0.4-8.7-0.7-13.9-1
	c-27.3-1.7-54.4,8.7-74.1,28.2l-13.8,13.6c-14.6-2.8-28.9-7.9-42.4-15.5c-43.9-24.7-97.4-26.7-143-5.4l-11.3,5.3
	C178.8,332.6,214.5,286.3,266.7,265.6L266.7,265.6z"/>
<path class="st1" d="M213.7,360.5c14.5-33.2,42.8-57.8,77.7-67.4l-4.5-16.5c-39.8,11-72.2,39.1-88.8,77L213.7,360.5z"/>
<circle class="st1" cx="289.1" cy="425.4" r="8.5"/>
<circle class="st1" cx="417.1" cy="468.1" r="8.5"/>
<circle class="st1" cx="340.3" cy="527.8" r="8.5"/>
<circle class="st1" cx="212.3" cy="468.1" r="8.5"/>
</svg>
