<?xml version="1.0" encoding="utf-8"?>
<!-- Generator: Adobe Illustrator 22.1.0, SVG Export Plug-In . SVG Version: 6.00 Build 0)  -->
<svg version="1.1" id="Capa_1" xmlns="http://www.w3.org/2000/svg" xmlns:xlink="http://www.w3.org/1999/xlink" x="0px" y="0px"
	 viewBox="0 0 636.2 644.6" style="enable-background:new 0 0 636.2 644.6;" xml:space="preserve">
<style type="text/css">
	.st0{fill:#D83071;}
	.st1{fill:#FF7BB1;}
</style>
<ellipse class="st0" cx="318.1" cy="322.3" rx="318.1" ry="322.3"/>
<g>
	<g>
		<path class="st1" d="M275.1,304.9c-3.9-3.9-10.2-3.9-14.1,0s-3.9,10.2,0,14.1s10.2,3.9,14.1,0C279,315.2,279,308.8,275.1,304.9z"
			/>
	</g>
</g>
<g>
	<g>
		<path class="st1" d="M328,322c-16.5,0-30,13.5-30,30s13.5,30,30,30s30-13.5,30-30S344.5,322,328,322z M328,362
			c-5.5,0-10-4.5-10-10s4.5-10,10-10s10,4.5,10,10S333.5,362,328,362z"/>
	</g>
</g>
<g>
	<g>
		<path class="st1" d="M328,271.6c-11.2,0-22,2.3-32.1,6.7c-5.1,2.2-7.4,8.1-5.1,13.2c2.2,5.1,8.1,7.4,13.2,5.1
			c7.6-3.3,15.7-5,24.1-5c33.1,0,60,26.9,60,60s-26.9,60-60,60s-60-26.9-60-60c0-0.3,0-0.7,0-1c0.1-5.5-4.2-10.1-9.8-10.2
			c-5.5-0.1-10.1,4.2-10.2,9.8c0,0.5,0,1,0,1.5c0,44.1,35.9,80,80,80s80-35.9,80-80S372.1,271.6,328,271.6z"/>
	</g>
</g>
<g>
	<g>
		<path class="st1" d="M328,121.6c-5.5,0-10,4.5-10,10v60c0,5.5,4.5,10,10,10s10-4.5,10-10v-60C338,126.1,333.5,121.6,328,121.6z"/>
	</g>
</g>
<g>
	<g>
		<path class="st1" d="M216.3,195.7l-42.4-42.4c-3.9-3.9-10.2-3.9-14.1,0c-3.9,3.9-3.9,10.2,0,14.1l42.4,42.4
			c3.9,3.9,10.2,3.9,14.1,0C220.2,206,220.2,199.6,216.3,195.7z"/>
	</g>
</g>
<g>
	<g>
		<path class="st1" d="M496.3,153.3c-3.9-3.9-10.2-3.9-14.1,0l-42.4,42.4c-3.9,3.9-3.9,10.2,0,14.1c3.9,3.9,10.2,3.9,14.1,0
			l42.4-42.4C500.2,163.5,500.2,157.2,496.3,153.3z"/>
	</g>
</g>
<g>
	<g>
		<path class="st1" d="M581.5,353.3C518,281.4,423.6,221.6,328,221.6c-95.7,0-190,59.8-253.5,131.7c-3.7,4.1-3.3,10.5,0.9,14.1
			c4.1,3.7,10.5,3.3,14.1-0.9c2.1-2.4,4.3-4.8,6.5-7.2c49.4,74.7,139,122.3,232,122.3S510.6,434,560,359.3c2.2,2.4,4.4,4.8,6.5,7.2
			c3.6,4.1,10,4.5,14.1,0.9C584.8,363.8,585.2,357.4,581.5,353.3z M328,461.6c-87.9,0-172.5-45.7-217.7-117
			c35.6-34.9,117.9-103,217.7-103c99.7,0,182.1,68.1,217.7,103C500.5,415.9,415.9,461.6,328,461.6z"/>
	</g>
</g>
</svg>
