<?xml version="1.0" encoding="utf-8"?>
<!-- Generator: Adobe Illustrator 22.1.0, SVG Export Plug-In . SVG Version: 6.00 Build 0)  -->
<svg version="1.1" id="Layer_1" xmlns="http://www.w3.org/2000/svg" xmlns:xlink="http://www.w3.org/1999/xlink" x="0px" y="0px"
	 viewBox="0 0 636.2 644.6" style="enable-background:new 0 0 636.2 644.6;" xml:space="preserve">
<style type="text/css">
	.st0{fill:#7A5F57;}
	.st1{fill:#AA8377;}
</style>
<ellipse class="st0" cx="318.1" cy="322.3" rx="318.1" ry="322.3"/>
<path class="st1" d="M571.1,426.9L545.5,351c-6.4-19-22.1-32.8-41-37.2c3.7-4.1,6.8-8.8,9.2-13.9c5.7-12.4,6.4-26.3,2-39.3
	L490,184.7c-7.8-23.2-29.5-38.7-54-38.7H186.8c-20.9,0-39.3,15.7-45.8,39.1L119.8,261c-5.3,19-1.1,39.3,9.9,53.3
	c-18.1,4.9-33,18.4-39.2,36.8l-25.7,75.8c-5.6,16.5-3,34.1,7.2,48.2c10.2,14.2,26,22.3,43.4,22.3h405.1c17.4,0,33.2-8.1,43.4-22.3
	C574.1,461,576.7,443.4,571.1,426.9z M493.8,242.8l-34.2-2.8c-3.4-0.3-4.2-2.9-4.4-4s-0.4-3.8,2.6-5.4L485,217L493.8,242.8z
	 M186.8,161h88.8c14.1,0,26.7,11.3,31.4,28.2l4.1,14.6c1.1,4,5.2,6.3,9.2,5.2c4-1.1,6.3-5.2,5.2-9.2l-4.1-14.6
	c-2.6-9.5-7.2-17.7-13.2-24.1H436c18,0,34,11.5,39.8,28.5l4.4,13.1L451,217.3c-8.1,4.1-12.3,12.8-10.6,21.6s8.9,15.3,18,16.1
	l40.6,3.3c0,0,17.1,35-17.2,54H334.1c9.9-13.8,13.5-33,8.4-51.3l-8.9-31.9c-1.1-4-5.2-6.3-9.2-5.2c-4,1.1-6.3,5.2-5.2,9.2L328,265
	c5.1,18.5-1.6,38.8-15.4,47.3H149.6c-29.4-24-14.4-50.4-14.4-50.4l54.7-9c7.9-1.3,15.9-0.8,23.6,1.3l9.5,2.6
	c6.8,1.9,13.9-0.9,17.6-6.9c3.7-6,3.1-13.6-1.7-18.9l-21.3-23.8c-7.9-8.9-19.6-13.1-31.4-11.3l-34.3,5.3l3.3-12
	C160.1,172.3,172.7,161,186.8,161z M147.6,217l40.9-6.3c6.7-1,13.4,1.4,18,6.5c0,0,21.7,24.3,21.3,24.8c-0.3,0.5-10.5-2.2-10.5-2.2
	c-9.8-2.7-19.9-3.2-30-1.6l-47.9,7.9L147.6,217z M115.5,482.4c-12.5,0-23.9-5.8-31.2-16c-7.3-10.2-9.2-22.8-5.2-34.7l25.7-75.8
	c5.8-17.1,21.8-28.6,39.8-28.6h107.9c18,0,34,11.5,39.8,28.6l25.7,75.8c4,11.9,2.1,24.5-5.2,34.7c-7.3,10.2-18.7,16-31.2,16H115.5z
	 M551.7,466.4c-7.3,10.2-18.7,16-31.2,16H318.7c2.3-2.2,22.8-22.7,13.4-55.5L306.5,351c-3.2-9.3-8.6-17.4-15.5-23.7h200.5
	c18,0,34,11.5,39.8,28.6l16.8,49.7c-10.8-1.4-21.9,1.5-30.5,8.1l-17.6,13.4c-7.2,5.5-16.4,7.7-25.3,6l-34.4-6.5
	c-5.2-1-10.7-0.6-15.8,1l-31,10.1l13-23c2.6-4.7,7.4-7.7,12.8-8l25.5-1.6c8.5-0.6,16.6-4.6,22.2-11.1l11.9-13.9
	c4.3-5,10.8-7.5,17.4-6.7l16.4,2.1c4.1,0.5,7.9-2.4,8.4-6.5c0.5-4.1-2.4-7.9-6.5-8.4l-16.4-2.1c-11.6-1.5-23.1,2.9-30.8,11.8
	l-11.9,13.9c-2.9,3.4-7.2,5.6-11.7,5.9l-25.5,1.6c-10.4,0.7-19.8,6.5-24.9,15.6l-14.6,25.9c-2.8,4.9-2.3,11,1.3,15.4
	c2.7,3.2,8.2,6,14.8,4.3l34.2-11.1c2.7-0.9,5.6-1.1,8.3-0.5l34.4,6.5c13.1,2.5,26.6-0.7,37.1-8.8l17.6-13.4
	c13.9-10.7,26.8-4.1,26.8-4.1l3.4,10.2C560.9,443.5,559,456.2,551.7,466.4z"/>
</svg>
