<?xml version="1.0" encoding="utf-8"?>
<!-- Generator: Adobe Illustrator 22.1.0, SVG Export Plug-In . SVG Version: 6.00 Build 0)  -->
<svg version="1.1" id="Capa_1" xmlns="http://www.w3.org/2000/svg" xmlns:xlink="http://www.w3.org/1999/xlink" x="0px" y="0px"
	 viewBox="0 0 636.2 644.6" style="enable-background:new 0 0 636.2 644.6;" xml:space="preserve">
<style type="text/css">
	.st0{fill:#97999B;}
	.st1{fill:#C4C9CE;}
</style>
<ellipse class="st0" cx="318.1" cy="322.3" rx="318.1" ry="322.3"/>
<g>
	<g>
		<g>
			<path class="st1" d="M484.1,196.8v-33.2c0-0.1,0-0.1,0-0.2c0-0.7-0.1-1.3-0.4-1.9l0,0c0-0.1-0.1-0.1-0.1-0.1
				c-0.2-0.5-0.6-1-1-1.5c-0.1-0.1-0.3-0.3-0.4-0.4c-0.3-0.3-0.7-0.6-1.2-0.8c-0.2-0.1-0.3-0.2-0.5-0.2c-0.6-0.2-1.3-0.4-1.9-0.4
				h-177c-1.5,0-2.9,0.6-3.9,1.6L153.7,303.6l0,0c-0.4,0.5-0.8,1-1.1,1.6c-0.3,0.6-0.4,1.3-0.5,2c0,0.1-0.1,0.2-0.1,0.3v33.2
				c0,3.1,2.5,5.5,5.5,5.5h41.5c13.7,0,24.9,11.2,24.9,24.9v6l-70.3,70.3c-1,1-1.6,2.4-1.6,3.9v33.2c0,3.1,2.5,5.5,5.5,5.5h177
				c0.7,0,1.5-0.2,2.2-0.4c0.1,0,0.1-0.1,0.2-0.1c0.6-0.3,1.1-0.6,1.6-1.1l0.1,0l110.6-116.1l33.2-33.2c1-1,1.6-2.4,1.6-3.9V302
				c0-0.1,0-0.1,0-0.2c0-0.7-0.1-1.3-0.4-1.9l0,0c0-0.1-0.1-0.1-0.1-0.1c-0.5-1.1-1.4-2.1-2.6-2.6c-0.2-0.1-0.3-0.2-0.5-0.3
				c-0.6-0.2-1.3-0.4-1.9-0.4H437c-0.5,0-0.9,0.1-1.4,0.3c-0.4-0.2-0.9-0.2-1.4-0.3c-12.9,0-23.6-10-24.7-22.8l72.9-72.9
				C483.5,199.7,484.1,198.3,484.1,196.8z M303.8,169.2h161.4L332.4,302H171L303.8,169.2z M224,392.8v28.1
				c0,13.7-11.2,24.9-24.9,24.9H171L224,392.8z M329.1,479h-166v-22.1h36c19.9,0,35.9-16.1,36-36v-49.8c0-19.9-16.1-35.9-36-36h-36
				V313h166v22.1h-36c-19.9,0-35.9,16.1-36,36v49.8c0,19.9,16.1,35.9,36,36h36L329.1,479L329.1,479z M473,332.9l-31.7,31.7
				L340.2,470.7v-17.2l109-114.5l23.8-23.8L473,332.9L473,332.9z M434.3,307.5c0.5,0,0.9-0.1,1.4-0.3c0.4,0.2,0.9,0.2,1.4,0.3h28.1
				l-23.8,23.8l-109,114.5h-39.1c-13.7,0-24.9-11.2-24.9-24.9v-49.8c0-13.7,11.2-24.9,24.9-24.9h41.5c1.5,0,2.9-0.6,3.9-1.6
				l61.6-61.6C405.1,297.6,418.8,307.5,434.3,307.5z M473,194.6l-73.1,73.1l0,0l-59.7,59.7v-17.5L473,177L473,194.6L473,194.6z"/>
			<path class="st1" d="M292.5,418.3c-2.1-0.9-4.5-0.4-6,1.2c-1,1.1-1.6,2.5-1.6,3.9c0,3.1,2.5,5.5,5.5,5.5c3.1,0,5.5-2.5,5.5-5.5
				C296,421.2,294.6,419.1,292.5,418.3z"/>
			<path class="st1" d="M313.9,394.9c-1.9-0.5-3.9,0.1-5.3,1.6l0,0l-5.5,5.8c-2.1,2.2-2,5.7,0.2,7.8s5.7,2,7.8-0.2l5.5-5.8
				c1.4-1.4,1.9-3.5,1.3-5.4C317.3,396.8,315.8,395.3,313.9,394.9z"/>
			<path class="st1" d="M330.7,373.2l-5.5,5.8c-2.1,2.2-2,5.7,0.2,7.8c2.2,2.1,5.7,2,7.8-0.2l5.5-5.8c2.1-2.2,2-5.7-0.2-7.8
				C336.3,370.9,332.8,371,330.7,373.2z"/>
			<path class="st1" d="M352.8,350l-5.5,5.8c-1.5,1.6-2,4-1.1,6s2.9,3.4,5.1,3.4c1.5,0,3-0.6,4-1.7l5.5-5.8c2.1-2.2,2-5.7-0.2-7.8
				C358.4,347.8,354.9,347.8,352.8,350z"/>
			<path class="st1" d="M380.3,325.3c-1.9-0.5-4,0.1-5.3,1.6l-5.5,5.8c-1.5,1.6-2,4-1.1,6c0.9,2,2.9,3.4,5.1,3.4c1.5,0,3-0.6,4-1.7
				l5.5-5.8c1.4-1.4,1.9-3.5,1.3-5.4C383.7,327.2,382.2,325.8,380.3,325.3z"/>
			<path class="st1" d="M393.4,308.2c-2.1,0.9-3.4,2.9-3.4,5.1c0,1.5,0.6,2.9,1.6,3.9c1,1.1,2.4,1.7,3.9,1.7c1.5,0,2.9-0.6,3.9-1.7
				c1-1,1.6-2.4,1.6-3.9c0-1.5-0.6-2.9-1.6-3.9C397.9,307.8,395.5,307.3,393.4,308.2z"/>
		</g>
	</g>
</g>
</svg>
