<?xml version="1.0" encoding="utf-8"?>
<!-- Generator: Adobe Illustrator 22.1.0, SVG Export Plug-In . SVG Version: 6.00 Build 0)  -->
<svg version="1.1" id="Capa_1" xmlns="http://www.w3.org/2000/svg" xmlns:xlink="http://www.w3.org/1999/xlink" x="0px" y="0px"
	 viewBox="0 0 636.2 644.6" style="enable-background:new 0 0 636.2 644.6;" xml:space="preserve">
<style type="text/css">
	.st0{fill:#2284C6;}
	.st1{fill:#46B1F9;}
</style>
<ellipse class="st0" cx="318.1" cy="322.3" rx="318.1" ry="322.3"/>
<g id="XMLID_1591_">
	<g id="XMLID_1173_">
		<g id="XMLID_225_">
			<path id="XMLID_228_" class="st1" d="M514.3,432.8h26.8c4.5,0,8.1-3.6,8.1-8.1s-3.6-8.1-8.1-8.1h-26.8
				c-41.6,0-75.4-33.8-75.4-75.4c0-13,10.6-23.5,23.5-23.5c13,0,23.6,10.6,23.6,23.5c0,4,2.8,7.3,6.7,8c3.9,0.7,7.7-1.6,9-5.3
				c9.5-26.8,2.7-57.2-17.4-77.3c-7.3-7.3-15.7-13.3-25-17.7c-4-1.9-8.9-0.2-10.8,3.8c-1.9,4-0.2,8.9,3.8,10.8
				c7.6,3.6,14.5,8.5,20.5,14.5c9.2,9.2,14.9,21.3,16.5,33.8c-7.1-6.5-16.5-10.5-26.9-10.5c-21.9,0-39.8,17.8-39.8,39.8
				C422.7,391.6,463.8,432.8,514.3,432.8L514.3,432.8z"/>
			<path id="XMLID_232_" class="st1" d="M175.3,416.5h-33.5c-4.5,0-8.1,3.6-8.1,8.1s3.6,8.1,8.1,8.1h33.5
				c37.6,0,73.6-11.4,104.2-33.1c17.5-12.4,32.5-27.6,44.5-44.9c2.2,25.2,12.9,49.9,32.1,69.2c1.6,1.6,3.7,2.4,5.7,2.4
				s4.2-0.8,5.7-2.4c3.2-3.2,3.2-8.3,0-11.5c-37.1-37.1-37.1-97.4,0-134.5c6-6,12.9-10.9,20.5-14.5c4-1.9,5.8-6.8,3.8-10.8
				c-1.9-4-6.8-5.8-10.8-3.8c-9.3,4.4-17.7,10.4-25,17.7c-7.1,7.1-13,14.8-17.7,23.1c-23.1-15.3-36.7-40.7-36.7-68.6
				c0-14.4,11.7-26.2,26.2-26.2c14.4,0,26.2,11.7,26.2,26.2c0,4,2.8,7.3,6.7,8c3.9,0.7,7.7-1.6,9-5.3c10.3-28.8,2.9-61.4-18.7-83.1
				c-18.4-18.4-42.9-28.6-69-28.6c-26.1,0-50.5,10.1-69,28.6c-13.4,13.4-23.3,29.5-29.1,47c-10,26.6-26.5,50.7-47.7,69.8
				c-3.3,3-3.6,8.1-0.6,11.5c1.6,1.8,3.8,2.7,6,2.7c1.9,0,3.9-0.7,5.4-2.1c11.8-10.6,22.3-22.7,31.1-35.8
				c2,28.9,14.2,55.8,34.8,76.4c1.6,1.6,3.7,2.4,5.7,2.4s4.2-0.8,5.7-2.4c3.2-3.2,3.2-8.3,0-11.5c-19.6-19.6-30.4-45.6-30.4-73.3
				s10.8-53.7,30.4-73.3c15.4-15.4,35.8-23.8,57.5-23.8c21.7,0,42.1,8.5,57.5,23.8c10.6,10.6,16.9,24.4,18.2,38.9
				c-7.7-7.7-18.3-12.5-30-12.5c-23.4,0-42.4,19-42.4,42.4c0,17.3,4.5,34.3,13.2,49.2c8,13.8,19.2,25.5,32.7,34.1
				c-0.7,1.7-1.3,3.4-1.8,5.1C305.7,373.5,243.7,416.5,175.3,416.5L175.3,416.5z"/>
			<path id="XMLID_233_" class="st1" d="M546.9,469.6c-3.2-3.2-8.3-3.2-11.5,0c-12.6,12.6-33,12.6-45.6,0
				c-18.9-18.9-49.6-18.9-68.5,0c-12.6,12.6-33,12.6-45.6,0c-9.2-9.2-21.3-14.2-34.3-14.2c-12.9,0-25.1,5-34.3,14.2
				c-12.6,12.6-33,12.6-45.6,0c-9.2-9.2-21.3-14.2-34.3-14.2c-12.9,0-25.1,5-34.3,14.2c-12.6,12.6-33,12.6-45.6,0
				c-3.2-3.2-8.3-3.2-11.5,0c-3.2,3.2-3.2,8.3,0,11.5c18.9,18.9,49.6,18.9,68.5,0c6.1-6.1,14.2-9.4,22.8-9.4
				c8.6,0,16.7,3.4,22.8,9.4c18.9,18.9,49.6,18.9,68.5,0c6.1-6.1,14.2-9.4,22.8-9.4s16.7,3.4,22.8,9.4c18.9,18.9,49.6,18.9,68.5,0
				c12.6-12.6,33-12.6,45.6,0c9.4,9.4,21.9,14.2,34.3,14.2c12.4,0,24.8-4.7,34.3-14.2C550,477.9,550,472.8,546.9,469.6L546.9,469.6z
				"/>
		</g>
	</g>
	<g id="XMLID_2196_">
		<g id="XMLID_2197_">
			<path id="XMLID_698_" class="st1" d="M420.2,256.2c-2.1,0-4.2-0.9-5.7-2.4c-1.5-1.5-2.4-3.6-2.4-5.7c0-2.1,0.9-4.2,2.4-5.7
				c1.5-1.5,3.6-2.4,5.7-2.4s4.2,0.9,5.7,2.4c1.5,1.5,2.4,3.6,2.4,5.7c0,2.1-0.9,4.2-2.4,5.7C424.5,255.3,422.4,256.2,420.2,256.2z"
				/>
		</g>
	</g>
	<g id="XMLID_2192_">
		<path id="XMLID_697_" class="st1" d="M420.2,256.2c-2.1,0-4.2-0.9-5.7-2.4c-1.5-1.5-2.4-3.6-2.4-5.7c0-2.1,0.9-4.2,2.4-5.7
			c1.5-1.5,3.6-2.4,5.7-2.4s4.2,0.9,5.7,2.4c1.5,1.5,2.4,3.6,2.4,5.7c0,2.1-0.9,4.2-2.4,5.7C424.5,255.3,422.4,256.2,420.2,256.2z"
			/>
	</g>
</g>
</svg>
